<svg xmlns="http://www.w3.org/2000/svg" viewBox="0 0 539.077 539.077" width="512" height="512"><g fill="#dceded"><path d="M269.538 539.077C120.917 539.077 0 418.171 0 269.538 0 120.917 120.917 0 269.538 0 418.17 0 539.076 120.917 539.076 269.538c.001 148.633-120.905 269.539-269.538 269.539zm0-516.615C133.3 22.462 22.462 133.3 22.462 269.538S133.3 516.615 269.538 516.615s247.077-110.838 247.077-247.077S405.777 22.462 269.538 22.462z"/><path d="M269.538 314.462c-24.776 0-44.923-20.158-44.923-44.923 0-24.776 20.147-44.923 44.923-44.923 24.765 0 44.923 20.147 44.923 44.923.001 24.764-20.158 44.923-44.923 44.923zm0-67.385c-12.382 0-22.462 10.079-22.462 22.462 0 12.393 10.079 22.462 22.462 22.462C281.932 292 292 281.932 292 269.538c0-12.382-10.068-22.461-22.462-22.461z"/><path d="M466.647 362.434c-1.448 0-2.895-.263-4.299-.855l-41.479-17.197c-5.725-2.369-8.445-8.95-6.076-14.675 2.391-5.747 9.015-8.489 14.675-6.076l41.479 17.197c5.725 2.369 8.445 8.95 6.076 14.675a11.237 11.237 0 0 1-10.376 6.931zm-394.25-.022c-4.409 0-8.588-2.61-10.375-6.931-2.369-5.725.351-12.306 6.076-14.675l41.479-17.175c5.736-2.413 12.306.351 14.675 6.076 2.369 5.725-.351 12.306-6.076 14.675l-41.479 17.175a11.043 11.043 0 0 1-4.3.855zm27.397-77.475H54.871a11.224 11.224 0 0 1-11.231-11.231 11.224 11.224 0 0 1 11.231-11.231h44.923a11.224 11.224 0 0 1 11.231 11.231c-.001 6.208-5.024 11.231-11.231 11.231zm383.107-4.146L438 280.769c-6.208 0-11.231-5.023-11.231-11.242 0-6.197 5.023-11.22 11.231-11.22l44.901.022c6.208 0 11.231 5.034 11.231 11.231a11.224 11.224 0 0 1-11.231 11.231zM293.36 256.937a11.197 11.197 0 0 1-7.941-3.29c-4.387-4.387-4.387-11.494 0-15.881L396.586 126.61c4.387-4.387 11.494-4.387 15.881 0 4.387 4.387 4.387 11.494 0 15.881L301.3 253.646a11.192 11.192 0 0 1-7.94 3.291zm-179.484-40.635c-1.437 0-2.895-.274-4.31-.855l-41.457-17.208c-5.725-2.38-8.445-8.95-6.065-14.686 2.391-5.736 8.939-8.434 14.686-6.065l41.457 17.208c5.725 2.38 8.445 8.95 6.065 14.686-1.799 4.321-5.978 6.92-10.376 6.92zm311.292 0c-4.409 0-8.577-2.61-10.375-6.931-2.369-5.736.351-12.306 6.076-14.675l41.501-17.175c5.747-2.347 12.306.362 14.675 6.076 2.369 5.736-.351 12.306-6.076 14.675l-41.501 17.175a11.268 11.268 0 0 1-4.3.855zm-274.77-54.673a11.195 11.195 0 0 1-7.94-3.29l-31.729-31.751c-4.387-4.387-4.387-11.505 0-15.881 4.387-4.387 11.494-4.387 15.881 0l31.729 31.751c4.387 4.387 4.387 11.505 0 15.881a11.199 11.199 0 0 1-7.941 3.29zm54.673-36.522c-4.398 0-8.588-2.61-10.375-6.931l-17.175-41.479c-2.369-5.736.351-12.306 6.076-14.675 5.692-2.347 12.306.351 14.675 6.076l17.175 41.479c2.369 5.736-.351 12.306-6.076 14.675a11.224 11.224 0 0 1-4.3.855zm128.935 0c-1.448 0-2.895-.274-4.299-.855-5.725-2.38-8.445-8.95-6.076-14.675l17.197-41.457c2.391-5.736 8.971-8.445 14.675-6.076 5.725 2.38 8.445 8.95 6.076 14.675l-17.197 41.457a11.237 11.237 0 0 1-10.376 6.931zm-65.751-8.621a11.224 11.224 0 0 1-11.231-11.231V60.332a11.224 11.224 0 0 1 11.231-11.231c6.197 0 11.242 5.023 11.242 11.231v44.923c0 6.208-5.045 11.231-11.242 11.231zm102.36 332.745H168.462A11.224 11.224 0 0 1 157.231 438v-67.385a11.224 11.224 0 0 1 11.231-11.231h202.154a11.224 11.224 0 0 1 11.231 11.231V438a11.226 11.226 0 0 1-11.232 11.231zm-190.923-22.462h179.692v-44.923H179.692v44.923z"/></g></svg>