<svg xmlns="http://www.w3.org/2000/svg" viewBox="0 0 96 96"><path d="M23.2 20.5h49.5c1.5 0 2.7 1.2 2.7 2.7v49.5c0 1.5-1.2 2.7-2.7 2.7H23.2c-1.5 0-2.7-1.2-2.7-2.7V23.2c0-1.5 1.2-2.7 2.7-2.7z" fill="#346da6"/><path d="M40.6 60.7V43.9h-5.2v16.8h5.2zm0-22.7c0-1.5-1-2.6-2.7-2.6-1.6 0-2.7 1.1-2.7 2.6s1 2.6 2.6 2.6c1.7 0 2.8-1.2 2.8-2.6zM49 60.7v-9.6c0-.5 0-1 .2-1.4.4-1 1.3-2.1 2.9-2.1 2.1 0 3.3 1.2 3.3 3.5v9.6h5.2v-9.8c0-5.3-2.8-7.7-6.5-7.7-3.1 0-4.4 1.7-5.2 2.9v-2.2h-5.2c.1 1.6 0 16.9 0 16.9H49z" fill="#fff"/></svg>