<svg xmlns="http://www.w3.org/2000/svg" width="512" height="512"><path d="M256 60c-57.897 0-105 47.103-105 105 0 35.943 18.126 69.015 48.487 88.467 31.003 19.863 69.06 21.974 104.426 5.703 7.525-3.462 10.82-12.37 7.357-19.896-3.462-7.525-12.369-10.82-19.896-7.358-25.86 11.898-53.454 10.545-75.703-3.709C193.961 214.298 181 190.669 181 165c0-41.355 33.645-75 75-75s75 33.645 75 75c0 8.271-6.729 15-15 15-7.558 0-14.618-5.732-14.998-14.772A17.33 17.33 0 0 1 301 165c0-24.813-20.187-45-45-45s-45 20.187-45 45 20.187 45 45 45c11.516 0 22.031-4.353 29.999-11.494C293.966 205.648 304.483 210 316 210c24.813 0 45-20.187 45-45 0-57.897-47.103-105-105-105zm14.789 107.406C269.631 174.535 263.45 180 256 180c-8.271 0-15-6.729-15-15s6.729-15 15-15c7.691 0 14.04 5.82 14.895 13.285a15.014 15.014 0 0 0-.106 4.121z" fill="#254446"/><path d="M480.999 196.976a15.101 15.101 0 0 0-4.393-10.583L421 130.787V15c0-8.284-6.716-15-15-15H106c-8.284 0-15 6.716-15 15v115.787l-55.606 55.606c-.052.052-.096.11-.147.163a15.066 15.066 0 0 0-4.246 10.42l-.001.029V467c0 24.845 20.216 45 45 45h360c24.839 0 45-20.207 45-45V197.005l-.001-.029zM421 173.213L444.787 197 421 220.787v-47.574zm-300-36.208V30h270v220.787L309.787 332H202.213L121 250.787V137.005zm-30 36.208v47.574L67.213 197 91 173.213zM61 460.787V233.213L174.787 347 61 460.787zM82.214 482l119.999-120h107.574l119.999 120H82.214zM451 460.787L337.213 347 451 233.213v227.574z" fill="#254446"/></svg>