<svg xmlns="http://www.w3.org/2000/svg" width="512" height="512"><path d="M482 162.636h-6.679V78.823c0-24.813-20.187-45-45-45H81.679c-24.813 0-45 20.187-45 45v134.784H30c-16.542 0-30 13.458-30 30v204.571c0 16.542 13.458 30 30 30h94.605c16.542 0 30-13.458 30-30v-91.251h48.662v45.397H186.4c-8.284 0-15 6.716-15 15s6.716 15 15 15h78.885v15.854c0 16.542 13.458 30 30 30H482c16.542 0 30-13.458 30-30v-255.54c0-16.544-13.458-30.002-30-30.002zm.015 237.924h-186.73V240.253h186.718l.012 160.307zM482 192.637l.001 17.616H295.285v-17.616H482zM30 243.606h94.605l.001 15.593H30v-15.593zm0 45.594h94.61l.011 113.384H30V289.2zm94.605 158.977H30v-15.593h94.624l.001 15.592-.02.001zm140.68-45.854h-32.018v-45.397h32.018v45.397zm0-75.399h-110.68V296.84h110.68v30.084zm0-134.288v74.204h-110.68v-23.235c0-16.542-13.458-30-30-30H66.679V78.823c0-8.271 6.729-15 15-15h348.643c8.271 0 15 6.729 15 15v83.814H295.285c-16.542-.001-30 13.457-30 29.999zm216.714 255.541H295.285V430.56h186.732l.001 17.616-.019.001z" fill="#dceded"/></svg>