<svg xmlns="http://www.w3.org/2000/svg" viewBox="0 0 511 511" width="512" height="512"><path d="M39.5 103c1.97 0 3.91-.8 5.3-2.2 1.4-1.39 2.2-3.33 2.2-5.3s-.8-3.91-2.2-5.3a7.51 7.51 0 0 0-5.3-2.2 7.51 7.51 0 0 0-7.5 7.5c0 1.97.8 3.91 2.2 5.3 1.39 1.4 3.33 2.2 5.3 2.2zm24 0a7.51 7.51 0 0 0 7.5-7.5c0-1.97-.8-3.91-2.2-5.3a7.528 7.528 0 0 0-5.3-2.2c-1.97 0-3.91.8-5.3 2.2-1.4 1.39-2.2 3.33-2.2 5.3s.8 3.91 2.2 5.3c1.39 1.4 3.33 2.2 5.3 2.2zm24 0c1.97 0 3.91-.8 5.3-2.2 1.4-1.39 2.2-3.33 2.2-5.3s-.8-3.91-2.2-5.3a7.528 7.528 0 0 0-5.3-2.2c-1.97 0-3.91.8-5.3 2.2-1.4 1.39-2.2 3.33-2.2 5.3s.8 3.91 2.2 5.3c1.39 1.4 3.33 2.2 5.3 2.2zm32 0h304a7.5 7.5 0 0 0 0-15h-304a7.5 7.5 0 0 0 0 15zm336 0h16a7.5 7.5 0 0 0 0-15h-16a7.5 7.5 0 0 0 0 15zm-16 65h-144c-12.958 0-23.5 10.542-23.5 23.5v.5h-8.5c-12.958 0-23.5 10.542-23.5 23.5V280h-17v-24.5c0-12.958-10.542-23.5-23.5-23.5h-128C58.542 232 48 242.542 48 255.5v64c0 12.958 10.542 23.5 23.5 23.5h128c12.958 0 23.5-10.542 23.5-23.5V295h17v64.5c0 12.958 10.542 23.5 23.5 23.5h8.5v.5c0 12.958 10.542 23.5 23.5 23.5h144c12.958 0 23.5-10.542 23.5-23.5v-16c0-12.958-10.542-23.5-23.5-23.5h-144c-12.958 0-23.5 10.542-23.5 23.5v.5h-8.5c-4.687 0-8.5-3.813-8.5-8.5V295h17v.5c0 12.958 10.542 23.5 23.5 23.5h144c12.958 0 23.5-10.542 23.5-23.5v-16c0-12.958-10.542-23.5-23.5-23.5h-144c-12.958 0-23.5 10.542-23.5 23.5v.5h-17v-64.5c0-4.687 3.813-8.5 8.5-8.5h8.5v.5c0 12.958 10.542 23.5 23.5 23.5h144c12.958 0 23.5-10.542 23.5-23.5v-16c0-12.958-10.542-23.5-23.5-23.5zM208 319.5c0 4.687-3.813 8.5-8.5 8.5h-128c-4.687 0-8.5-3.813-8.5-8.5v-64c0-4.687 3.813-8.5 8.5-8.5h128c4.687 0 8.5 3.813 8.5 8.5v64zm79 48c0-4.687 3.813-8.5 8.5-8.5h144c4.687 0 8.5 3.813 8.5 8.5v16c0 4.687-3.813 8.5-8.5 8.5h-144c-4.687 0-8.5-3.813-8.5-8.5v-16zm0-88c0-4.687 3.813-8.5 8.5-8.5h144c4.687 0 8.5 3.813 8.5 8.5v16c0 4.687-3.813 8.5-8.5 8.5h-144c-4.687 0-8.5-3.813-8.5-8.5v-16zm161-72c0 4.687-3.813 8.5-8.5 8.5h-144c-4.687 0-8.5-3.813-8.5-8.5v-16c0-4.687 3.813-8.5 8.5-8.5h144c4.687 0 8.5 3.813 8.5 8.5v16z" data-original="#000000" class="active-path" data-old_color="#000000" fill="#DCEDED"/><path d="M471.5 56h-432C17.72 56 0 73.72 0 95.5v320C0 437.28 17.72 455 39.5 455h432c21.78 0 39.5-17.72 39.5-39.5v-320c0-21.78-17.72-39.5-39.5-39.5zm-432 15h432c13.509 0 24.5 10.991 24.5 24.5V120H15V95.5C15 81.991 25.991 71 39.5 71zm432 369h-432C25.991 440 15 429.009 15 415.5V135h481v280.5c0 13.509-10.991 24.5-24.5 24.5z" data-original="#000000" class="active-path" data-old_color="#000000" fill="#DCEDED"/></svg>