<?xml version="1.0" encoding="iso-8859-1"?>
<!-- Generator: Adobe Illustrator 19.0.0, SVG Export Plug-In . SVG Version: 6.00 Build 0)  -->
<svg xmlns="http://www.w3.org/2000/svg" xmlns:xlink="http://www.w3.org/1999/xlink" version="1.1" id="Capa_1" x="0px" y="0px" viewBox="0 0 512 512" style="enable-background:new 0 0 512 512;" xml:space="preserve" width="512px" height="512px">
<g>
	<g>
		<path d="M482,162.636h-6.679V78.823c0-24.813-20.187-45-45-45H81.679c-24.813,0-45,20.187-45,45v134.784H30    c-16.542,0-30,13.458-30,30v204.571c0,16.542,13.458,30,30,30h94.605c16.542,0,30-13.458,30-30v-91.251h48.662v45.397H186.4    c-8.284,0-15,6.716-15,15s6.716,15,15,15h78.885v15.854c0,16.542,13.458,30,30,30H482c16.542,0,30-13.458,30-30v-255.54    C512,176.094,498.542,162.636,482,162.636z M482.015,400.56h-186.73V240.253h186.718L482.015,400.56z M482,192.637l0.001,17.616    H295.285v-17.616H482z M30,243.606h94.605l0.001,15.593H30V243.606z M30,289.2h94.61l0.011,113.384H30V289.2z M124.605,448.177H30    v-15.593h94.624l0.001,15.592C124.625,448.175,124.619,448.177,124.605,448.177z M265.285,402.323h-32.018v-45.397h32.018V402.323    z M265.285,326.924h-47.018h-63.662v-30.084h110.68V326.924z M265.285,192.636v74.204h-110.68v-23.235c0-16.542-13.458-30-30-30    H66.679V78.823c0-8.271,6.729-15,15-15h348.643c8.271,0,15,6.729,15,15v83.814H295.285    C278.743,162.636,265.285,176.094,265.285,192.636z M481.999,448.177H295.285V430.56h186.732l0.001,17.616    C482.018,448.177,482.012,448.177,481.999,448.177z" fill="#dceded"/>
	</g>
</g>
<g>
</g>
<g>
</g>
<g>
</g>
<g>
</g>
<g>
</g>
<g>
</g>
<g>
</g>
<g>
</g>
<g>
</g>
<g>
</g>
<g>
</g>
<g>
</g>
<g>
</g>
<g>
</g>
<g>
</g>
</svg>
