<?xml version="1.0" encoding="utf-8"?>
<!-- Generator: Adobe Illustrator 19.0.0, SVG Export Plug-In . SVG Version: 6.00 Build 0)  -->
<svg version="1.1" id="Layer_1" xmlns="http://www.w3.org/2000/svg" xmlns:xlink="http://www.w3.org/1999/xlink" x="0px" y="0px"
	 viewBox="0 0 96 96" style="enable-background:new 0 0 96 96;" xml:space="preserve">
<style type="text/css">
	.st0{fill:#346DA6;}
	.st1{fill:#FFFFFF;}
</style>
<g id="XMLID_1_">
	<path id="XMLID_3_" class="st0" d="M23.2,20.5h49.5c1.5,0,2.7,1.2,2.7,2.7v49.5c0,1.5-1.2,2.7-2.7,2.7H23.2c-1.5,0-2.7-1.2-2.7-2.7
		V23.2C20.5,21.7,21.7,20.5,23.2,20.5z"/>
	<path id="XMLID_7_" class="st1" d="M40.6,60.7V43.9h-5.2v16.8H40.6z M40.6,38c0-1.5-1-2.6-2.7-2.6c-1.6,0-2.7,1.1-2.7,2.6
		c0,1.5,1,2.6,2.6,2.6h0C39.5,40.6,40.6,39.4,40.6,38z M49,60.7v-9.6c0-0.5,0-1,0.2-1.4c0.4-1,1.3-2.1,2.9-2.1
		c2.1,0,3.3,1.2,3.3,3.5v9.6h5.2v-9.8c0-5.3-2.8-7.7-6.5-7.7c-3.1,0-4.4,1.7-5.2,2.9l0-2.2h-5.2c0.1,1.6,0,16.9,0,16.9H49z"/>
</g>
</svg>
